<svg width="16" height="16" viewBox="0 0 441 441" fill="none" xmlns="http://www.w3.org/2000/svg">
<g clip-path="url(#clip0_18_385)">
<circle cx="220.5" cy="220.5" r="220.5" fill="#C992FB"/>
<path d="M317.98 22.6625C293.647 13.1947 267.18 8 239.5 8C119.93 8 23 104.93 23 224.5C23 340.901 114.861 435.847 230.044 440.797C226.879 440.932 223.698 441 220.5 441C98.7212 441 0 342.279 0 220.5C0 98.7212 98.7212 0 220.5 0C255.496 0 288.588 8.1527 317.98 22.6625Z" fill="#E0BEFF"/>
<path d="M169 407C297.13 407 401 303.13 401 175C401 132.194 389.407 92.0951 369.189 57.6729C413.318 97.993 441 156.014 441 220.5C441 342.278 342.279 441 220.5 441C165.836 441 115.818 421.108 77.2891 388.168C105.419 400.286 136.426 407 169 407Z" fill="#6A2F9E"/>
<path d="M169 407C297.13 407 401 303.13 401 175C401 132.194 389.407 92.0951 369.189 57.6729C413.318 97.993 441 156.014 441 220.5C441 342.278 342.279 441 220.5 441C165.836 441 115.818 421.108 77.2891 388.168C105.419 400.286 136.426 407 169 407Z" fill="#6A2F9E"/>
<path d="M169 407C297.13 407 401 303.13 401 175C401 132.194 389.407 92.0951 369.189 57.6729C413.318 97.993 441 156.014 441 220.5C441 342.278 342.279 441 220.5 441C165.836 441 115.818 421.108 77.2891 388.168C105.419 400.286 136.426 407 169 407Z" fill="#A551F2"/>
<path d="M223.12 278.35C234.71 297.75 262.15 298.5 275.89 281.13C278.03 278.42 280.19 272.93 283.5 271.02C290.99 266.68 297.79 275.25 295.23 282.23C282 318.22 228.47 321.79 209.62 288.91C206.42 283.33 204.82 273.57 213.26 271.8C218.45 270.71 220.47 273.92 223.12 278.35Z" fill="#20103F"/>
<path d="M376 191C376 219.167 353.167 242 325 242C296.833 242 274 219.167 274 191C274 162.833 296.833 140 325 140C353.167 140 376 162.833 376 191Z" fill="#20103F"/>
<path d="M342.36 205.956C352.856 209.859 364.487 204.629 368.338 194.273C372.19 183.918 366.803 172.358 356.307 168.455C345.811 164.551 334.18 169.782 330.329 180.138C326.477 190.493 331.864 202.052 342.36 205.956Z" fill="#FCFCFE"/>
<path d="M202 201C202 229.167 179.167 252 151 252C122.833 252 100 229.167 100 201C100 172.833 122.833 150 151 150C179.167 150 202 172.833 202 201Z" fill="#20103F"/>
<path d="M168.36 215.956C178.856 219.859 190.487 214.629 194.338 204.273C198.19 193.918 192.803 182.358 182.307 178.455C171.811 174.551 160.18 179.782 156.329 190.138C152.477 200.493 157.864 212.052 168.36 215.956Z" fill="#FCFCFE"/>
<circle cx="388" cy="317" r="11" fill="#C992FB"/>
<circle cx="328" cy="352" r="23" fill="#20103F"/>
<circle cx="275.5" cy="393.5" r="7.5" fill="#20103F"/>
<circle cx="184" cy="366" r="12" fill="#20103F"/>
<circle cx="126" cy="306" r="30" fill="#20103F"/>
<circle cx="59" cy="267" r="7" fill="#20103F"/>
<circle cx="71" cy="180" r="7" fill="#20103F"/>
<circle cx="189.5" cy="86.5" r="21.5" fill="#20103F"/>
<circle cx="264" cy="118" r="12" fill="#20103F"/>
<circle cx="264" cy="70" r="5" fill="#20103F"/>
</g>
<defs>
<clipPath id="clip0_18_385">
<rect width="441" height="441" fill="white"/>
</clipPath>
</defs>
</svg>
