<svg t="1724176370970" class="icon" viewBox="0 0 1024 1024" version="1.1" xmlns="http://www.w3.org/2000/svg" p-id="5473" width="200" height="200"><path d="M628.01 470.03h88.851v71.575h-88.85V470.03zM628.01 361.426h88.851v69.107h-88.85v-69.107zM497.184 470.03h86.382v71.575h-86.382V470.03z" p-id="5474" fill="#28c5a9"></path><path d="M798.06 65.29H225.939c-81.839 0-148.204 68.834-148.204 153.746V795.52c0 84.93 67.835 163.189 151.559 163.189h565.393c83.724 0 151.577-78.277 151.577-163.189V219.036c0.001-84.911-66.344-153.746-148.202-153.746zM541.61 213.325c11.497 21.402 23.032 49.363 34.567 83.922-14.815 4.938-31.287 11.535-49.383 19.744-6.596-29.62-16.453-56.771-29.611-81.454l44.427-22.212zM400.927 586.04l-9.876 116.01c-3.318 32.91-17.718 52.644-43.201 59.26a631.2 631.2 0 0 1-77.75 14.796c-3.317-21.412-9.065-41.966-17.284-61.71 37.847 1.658 62.52 1.235 74.056-1.234 11.479-2.47 18.076-13.572 19.735-33.323l9.876-123.42h-118.48c6.558-52.651 9.875-109.413 9.875-170.321H358.97v-91.32c-54.32 0-97.125 0.848-128.357 2.469v-44.435c26.294 1.668 51.832 2.47 76.505 2.47h98.747a1257.144 1257.144 0 0 0-2.488 78.983c0 26.341 0.83 56.78 2.488 91.34H292.323l-4.938 88.86h120.93c-3.318 23.05-5.767 46.884-7.388 71.575z m397.398 101.205c-32.947-1.611-60.9-2.469-83.932-2.469h-86.382c0 37.877 0.79 74.045 2.469 108.614h-49.363c1.62-37.884 2.45-74.055 2.45-108.614H487.31c-26.33 1.67-49.363 3.318-69.116 4.948v-46.903c19.753 1.648 42.785 3.307 69.116 4.928h96.258v-66.648H447.821c1.62-41.108 2.469-85.543 2.469-133.286 0-47.715-0.848-88.86-2.47-123.418h180.19c14.816-34.558 27.952-69.918 39.506-106.145 18.058 8.256 37 15.664 56.753 22.223-16.474 18.123-32.08 46.084-46.895 83.922h86.382c-1.658 31.278-2.469 73.234-2.469 125.878 0 52.681 0.81 96.268 2.47 130.827H628.01v66.648h83.913c21.374 0 50.174-0.81 86.4-2.47v41.965z" p-id="5475" fill="#28c5a9"></path><path d="M497.184 361.426h86.382v69.107h-86.382v-69.107z" p-id="5476" fill="#28c5a9"></path></svg>