<svg t="1724176294015" class="icon" viewBox="0 0 1024 1024" version="1.1" xmlns="http://www.w3.org/2000/svg" p-id="3787" width="200" height="200"><path d="M89.68394 729.356706q20.871793 29.300382 36.57293 28.207398T179.539846 729.356706q37.623876-27.114414 40.755696-30.288271t25.075577-36.57293q21.943758-33.378053 24.024632-41.785624l2.101893-14.713247 21.018925-54.333922 4.203785-75.226734q-27.198489 4.203785-66.88222 33.441111t-39.851883 31.339217l-10.509462 31.339218q-37.602857-20.871793-39.70475-29.258344l-27.093395-48.049263a90.591568 90.591568 0 0 1 8.407571-16.815141l20.892811-50.151155q16.689027-37.623876 16.81514-50.151156l-10.509462-25.075578-8.40757-27.156451q77.307607-96.098526 81.511392-102.383185l12.611355-27.17747 20.892812-22.973686 10.509462-16.81514Q204.594405 131.662548 184.773558 101.353258t-19.862884-49.121229v-12.611355q4.203785 0 16.81514 10.509463l20.892812 18.917032 6.305677 12.611356a32.600353 32.600353 0 0 0 12.611355 8.40757q6.305678 2.101893 46.998317-10.509463c27.17747-8.40757 42.03785-13.220904 44.938462-14.713248 4.203785 0 18.076276 3.489142 41.785624 10.509463S392.62971 86.724086 396.833495 88.804959s11.497352 10.509463 21.943758 25.075578 14.965475 25.4329 13.599244 32.390164a28.669814 28.669814 0 0 1-7.314586 13.578225q-5.254731 5.27575-29.258344 18.917033t-54.333921 49.10021q-30.330309 35.564022-36.57293 50.151155l48.070282 35.521984c-2.816536 8.40757-6.999302 13.262942-12.611355 14.713248l-56.414796 14.713247A144.12677 144.12677 0 0 0 247.451993 363.627407c-10.509463 8.40757-15.659099 13.262942-15.659099 14.713247l-10.509463 48.070282c6.936245-1.36623 17.025329-3.825444 30.288271-7.314586s23.66731-4.855372 31.339218-4.203785 20.178168 8.029229 37.623876 21.943758 29.258344 25.075578 35.521984 33.44111 12.169958 21.943758 17.760992 40.734678 8.40757 40.755696 8.40757 65.831273v4.203785a80.77573 80.77573 0 0 0 10.509462-4.203785l25.117616-18.917032 58.495669-41.785624q-14.713248-20.871793-18.790919-33.44111c-2.816536-8.40757-4.203785-20.178168-4.203785-35.521983l-2.101893-33.441111c-1.408268-18.076276-2.438195-29.237325-3.13182-33.420091s0.336303-17.40367 3.13182-39.704749l4.203785-64.780328a90.381379 90.381379 0 0 1 6.305678-35.521984q6.305678-14.587134 73.14586-58.516688l58.516688-43.887515a334.200911 334.200911 0 0 1 55.363849-33.420092q30.267252-14.587134 38.653803-22.994704t14.713248-25.075578l-20.892812-12.611355q8.40757-4.203785 27.177471 6.305678l25.054558 14.713247c6.957264 6.978283 11.14003 12.611355 12.611356 16.815141l-2.101893 10.509462-2.101893 12.611355q-35.564022 37.623876-54.333921 50.151156l-37.602858 20.892812-50.403382 31.065971v10.509463l10.509462 6.305677q12.611355-4.203785 63.729382-9.416478t55.384868-5.212694q66.840182 4.203785 96.119545 44.917444t30.288271 55.384868q1.050946 14.713248-15.659099 58.495669l-29.258344 79.409499q-18.917033 35.564022-71.043967 81.490373 43.887516 27.17747 68.942074 33.44111l58.516688 12.611356q29.258344 10.509463 48.070282 29.258344l16.710046 22.994704q10.509463 16.81514 10.509462 18.811938l-2.101892 6.305677c-5.591034 1.408268-10.131122 2.438195-13.599245 3.13182s-21.922739-6.957264-55.363849-22.994704-98.221438-17.025329-194.340983-3.13182l-4.203785 4.203785 2.101893 10.509463-6.305678 18.811938 4.203785 20.892812-6.305677 14.713247V731.458598l-6.305678 18.79092q-2.101893 4.203785 2.101893 33.44111l-8.40757 71.043967-2.101893 43.887516a208.318568 208.318568 0 0 1-6.305677 33.44111l-8.407571 25.075578-2.101892 50.151155c-1.408268 9.710743-4.89741 15.301778-10.509463 16.710046l-4.203785-12.611355h-6.305677l-29.258344-125.377889-18.917033-194.319964v-29.279363h-12.611355l-52.253048 16.81514q-6.305678 2.101893-59.546615 4.203785t-55.384869-2.101892l-27.156451-21.018925q-37.623876 79.451537-54.333922 87.775031l-39.242333 27.156452q-14.713248-4.203785-31.339218 10.509462a154.047703 154.047703 0 0 0-22.994704-7.314586q-6.305678-1.029927-25.075578 3.13182c-12.611355 2.795517-21.607455 4.203785-27.156451 4.203785q-31.339218 2.101893-58.516688-21.943758T85.501174 731.458598zM417.85242 616.44304l146.270701-37.623877 2.101892-54.333921-18.811938 10.509462c4.203785 8.40757 6.305678 13.241923 6.305678 14.608153v6.305678q-14.713248 2.101893-25.075578-10.509463c-8.40757 1.387249-13.956566 2.438195-16.81514 3.13182s-7.671908 3.846463-14.608153 9.39546-22.30108 15.680118-45.989409 30.30929-34.870397 24.024632-33.378053 28.207398z m173.343076-583.00193l14.713248 10.509463a4.203785 4.203785 0 0 1-3.13182-1.050947c-0.714643-0.693625-3.13182 8.029229-7.314586 26.126524q-2.101893 2.101893-33.44111 54.333922t-54.396978 52.168973c-6.999302 1.408268-14.713248-0.336303-22.994704-5.233713a75.121639 75.121639 0 0 1-22.994705-21.922739 66.146558 66.146558 0 0 1-12.611355-29.258344q-2.101893-14.608153 54.333922-64.780327L553.592639 6.305678l8.40757-6.305678z m-22.973685 282.094996c9.710743-1.36623 15.995402-6.305678 18.790919-14.713248a34.597151 34.597151 0 0 0 2.101893-10.509463l-2.101893-6.305677q-25.054559 8.40757-73.124841 8.40757a25.22271 25.22271 0 0 1-3.131819 5.233712c-0.714643 0.714643 0.315284 2.438195 3.131819 5.212694l4.203786 16.81514 6.305677 8.40757q29.174268-10.446406 43.824459-12.548298z m-45.989408 73.124841v22.994704l6.305677 4.203785 37.602858-27.17747-43.908535-16.646989z m8.40757 50.151155c15.322797 0 25.769202-1.36623 31.339217-4.203785a23.457121 23.457121 0 0 0 8.407571-8.40757v-16.710045c-4.203785 0-6.620961-0.336303-7.314586-1.050947s-4.540088 1.76559-11.497353 7.314586l-20.892811 16.710046z m39.70475-204.766369l2.101892 2.101892h4.203785v-4.203785h4.203785l2.101893-2.101892 4.203785-2.101893v-4.203785l-2.101893-2.101893h-8.40757l-4.203785 4.203785-2.101892 2.101893-2.101893 4.203785z m73.14586 56.414795L716.573386 346.812267l-6.305678 12.611355-29.258344 2.101892q-2.101893 20.892812-4.203785 32.390164a54.123733 54.123733 0 0 0-1.029927 17.760992q1.008908 6.305678 11.476333 12.611355a205.3549 205.3549 0 0 0 20.91383-27.156451l18.853976-37.707952 10.509463-16.815141 12.611355-35.521983q12.611355-35.500965 14.713248-39.70475v-8.40757a220.131204 220.131204 0 0 0-35.521984-1.050946 263.051849 263.051849 0 0 0-37.623876 7.314586l-20.892812 2.101892-29.258344 10.509463z m35.521983 267.465824l77.307607-2.101893q-18.790919-25.096597-31.339217-25.075578l-8.40757 2.101893-35.521984 8.40757z" fill="#e6e6e6" p-id="3788"></path></svg>