<svg width="500" height="500" viewBox="0 0 500 500" fill="none" xmlns="http://www.w3.org/2000/svg">
<circle cx="249.5" cy="249.5" r="220.5" fill="#C992FB"/>
<path d="M346.98 51.6625C322.647 42.1947 296.18 37 268.5 37C148.93 37 52 133.93 52 253.5C52 369.901 143.861 464.847 259.044 469.797C255.879 469.932 252.698 470 249.5 470C127.721 470 29 371.279 29 249.5C29 127.721 127.721 29 249.5 29C284.496 29 317.588 37.1527 346.98 51.6625Z" fill="#E0BEFF"/>
<path d="M198 436C326.13 436 430 332.13 430 204C430 161.194 418.407 121.095 398.189 86.6729C442.318 126.993 470 185.014 470 249.5C470 371.278 371.279 470 249.5 470C194.836 470 144.818 450.108 106.289 417.168C134.419 429.286 165.426 436 198 436Z" fill="#6A2F9E"/>
<path d="M198 436C326.13 436 430 332.13 430 204C430 161.194 418.407 121.095 398.189 86.6729C442.318 126.993 470 185.014 470 249.5C470 371.278 371.279 470 249.5 470C194.836 470 144.818 450.108 106.289 417.168C134.419 429.286 165.426 436 198 436Z" fill="#6A2F9E"/>
<path d="M198 436C326.13 436 430 332.13 430 204C430 161.194 418.407 121.095 398.189 86.6729C442.318 126.993 470 185.014 470 249.5C470 371.278 371.279 470 249.5 470C194.836 470 144.818 450.108 106.289 417.168C134.419 429.286 165.426 436 198 436Z" fill="#A551F2"/>
<path d="M252.12 307.35C263.71 326.75 291.15 327.5 304.89 310.13C307.03 307.42 309.19 301.93 312.5 300.02C319.99 295.68 326.79 304.25 324.23 311.23C311 347.22 257.47 350.79 238.62 317.91C235.42 312.33 233.82 302.57 242.26 300.8C247.45 299.71 249.47 302.92 252.12 307.35Z" fill="#20103F"/>
<path d="M405 220C405 248.167 382.167 271 354 271C325.833 271 303 248.167 303 220C303 191.833 325.833 169 354 169C382.167 169 405 191.833 405 220Z" fill="#20103F"/>
<path d="M371.36 234.956C381.856 238.859 393.487 233.629 397.338 223.273C401.19 212.918 395.803 201.358 385.307 197.455C374.811 193.551 363.18 198.782 359.329 209.138C355.477 219.493 360.864 231.052 371.36 234.956Z" fill="#FCFCFE"/>
<path d="M231 230C231 258.167 208.167 281 180 281C151.833 281 129 258.167 129 230C129 201.833 151.833 179 180 179C208.167 179 231 201.833 231 230Z" fill="#20103F"/>
<path d="M197.36 244.956C207.856 248.859 219.487 243.629 223.338 233.273C227.19 222.918 221.803 211.358 211.307 207.455C200.811 203.551 189.18 208.782 185.329 219.138C181.477 229.493 186.864 241.052 197.36 244.956Z" fill="#FCFCFE"/>
<circle cx="417" cy="346" r="11" fill="#C992FB"/>
<circle cx="357" cy="381" r="23" fill="#20103F"/>
<circle cx="304.5" cy="422.5" r="7.5" fill="#20103F"/>
<circle cx="213" cy="395" r="12" fill="#20103F"/>
<circle cx="155" cy="335" r="30" fill="#20103F"/>
<circle cx="88" cy="296" r="7" fill="#20103F"/>
<circle cx="100" cy="209" r="7" fill="#20103F"/>
<circle cx="218.5" cy="115.5" r="21.5" fill="#20103F"/>
<circle cx="293" cy="147" r="12" fill="#20103F"/>
<circle cx="293" cy="99" r="5" fill="#20103F"/>
</svg>
