<svg width="2403" height="662" viewBox="0 0 2403 662" fill="none" xmlns="http://www.w3.org/2000/svg">
<g clip-path="url(#clip0_19_564)">
<g clip-path="url(#clip1_19_564)">
<circle cx="331.25" cy="331.25" r="330.75" fill="#C992FB"/>
<path d="M477.469 34.4937C440.971 20.2921 401.271 12.5 359.75 12.5C180.396 12.5 35 157.896 35 337.25C35 511.852 172.792 654.27 345.565 661.696C340.819 661.898 336.046 662 331.25 662C148.582 662 0.5 513.918 0.5 331.25C0.5 148.582 148.582 0.5 331.25 0.5C383.744 0.5 433.381 12.7291 477.469 34.4937Z" fill="#E0BEFF"/>
<path d="M254 611C446.195 611 602 455.195 602 262.999C602 198.79 584.61 138.643 554.283 87.0093C620.477 147.49 662 234.52 662 331.249C662 513.918 513.919 661.999 331.25 661.999C249.254 661.999 174.227 632.162 116.434 582.752C158.629 600.93 205.138 611 254 611Z" fill="#6A2F9E"/>
<path d="M254 611C446.195 611 602 455.195 602 262.999C602 198.79 584.61 138.643 554.283 87.0093C620.477 147.49 662 234.52 662 331.249C662 513.918 513.919 661.999 331.25 661.999C249.254 661.999 174.227 632.162 116.434 582.752C158.629 600.93 205.138 611 254 611Z" fill="#6A2F9E"/>
<path d="M254 611C446.195 611 602 455.195 602 262.999C602 198.79 584.61 138.643 554.283 87.0093C620.477 147.49 662 234.52 662 331.249C662 513.918 513.919 661.999 331.25 661.999C249.254 661.999 174.227 632.162 116.434 582.752C158.629 600.93 205.138 611 254 611Z" fill="#A551F2"/>
<path d="M335.18 418.025C352.565 447.125 393.725 448.25 414.335 422.195C417.545 418.13 420.785 409.895 425.75 407.03C436.985 400.52 447.185 413.375 443.345 423.845C423.5 477.83 343.205 483.185 314.93 433.865C310.13 425.495 307.73 410.855 320.39 408.2C328.175 406.565 331.205 411.38 335.18 418.025Z" fill="#20103F"/>
<path d="M564.5 287C564.5 329.25 530.25 363.5 488 363.5C445.75 363.5 411.5 329.25 411.5 287C411.5 244.75 445.75 210.5 488 210.5C530.25 210.5 564.5 244.75 564.5 287Z" fill="#20103F"/>
<path d="M514.04 309.434C529.784 315.289 547.231 307.443 553.007 291.91C558.784 276.377 550.704 259.038 534.96 253.182C519.216 247.327 501.77 255.173 495.993 270.706C490.216 286.24 498.296 303.579 514.04 309.434Z" fill="#FCFCFE"/>
<path d="M303.5 302C303.5 344.25 269.25 378.5 227 378.5C184.75 378.5 150.5 344.25 150.5 302C150.5 259.75 184.75 225.5 227 225.5C269.25 225.5 303.5 259.75 303.5 302Z" fill="#20103F"/>
<path d="M253.04 324.434C268.784 330.289 286.231 322.443 292.007 306.91C297.784 291.377 289.704 274.038 273.96 268.182C258.216 262.327 240.77 270.173 234.993 285.706C229.216 301.24 237.296 318.579 253.04 324.434Z" fill="#FCFCFE"/>
<circle cx="582.5" cy="476" r="16.5" fill="#C992FB"/>
<circle cx="492.5" cy="528.5" r="34.5" fill="#20103F"/>
<circle cx="413.75" cy="590.75" r="11.25" fill="#20103F"/>
<circle cx="276.5" cy="549.5" r="18" fill="#20103F"/>
<circle cx="189.5" cy="459.5" r="45" fill="#20103F"/>
<circle cx="89" cy="401" r="10.5" fill="#20103F"/>
<circle cx="107" cy="270.5" r="10.5" fill="#20103F"/>
<circle cx="284.75" cy="130.25" r="32.25" fill="#20103F"/>
<circle cx="396.5" cy="177.5" r="18" fill="#20103F"/>
<circle cx="396.5" cy="105.5" r="7.5" fill="#20103F"/>
</g>
<path d="M795.04 506V157.84H863.648V442H1014.69V506H795.04ZM1129.47 511.12C1081.86 511.12 1044.99 479.888 1044.99 415.376V250H1113.6V407.184C1113.6 437.904 1128.96 454.288 1158.14 454.288C1188.86 454.288 1209.86 435.856 1209.86 393.36V250H1278.46V506H1211.39V458.384C1196.03 487.568 1170.94 511.12 1129.47 511.12ZM1322.52 506V250H1389.59V297.616C1404.95 268.432 1430.04 244.88 1471.51 244.88C1519.64 244.88 1558.04 276.112 1558.04 342.16V506H1489.43V349.84C1489.43 318.608 1472.53 301.712 1442.84 301.712C1412.12 301.712 1391.12 320.144 1391.12 362.64V506H1322.52ZM1675.26 511.12C1623.03 511.12 1595.9 480.4 1595.9 441.488C1595.9 397.456 1630.2 373.904 1670.14 363.664L1754.1 342.672V339.088C1754.1 309.392 1737.72 297.104 1711.61 297.104C1683.45 297.104 1667.06 310.928 1666.55 339.6H1596.92C1602.04 276.624 1649.66 244.88 1713.66 244.88C1783.8 244.88 1822.71 282.768 1822.71 347.28V506H1755.64V464.016C1740.28 494.224 1714.17 511.12 1675.26 511.12ZM1664.5 432.784C1664.5 452.24 1679.35 462.48 1701.37 462.48C1734.14 462.48 1754.1 440.464 1754.1 406.16V386.192L1698.81 399.504C1675.26 405.136 1664.5 416.912 1664.5 432.784ZM1865.52 506V250H1932.59V299.152C1949.48 260.752 1974.57 247.44 2005.29 247.44H2017.58V315.536H1981.74C1950 315.536 1934.12 327.824 1934.12 366.224V506H1865.52ZM2047.52 506V250H2116.12V506H2047.52ZM2046.49 215.696H2117.66V148.624H2046.49V215.696ZM2234.76 511.12C2182.53 511.12 2155.4 480.4 2155.4 441.488C2155.4 397.456 2189.7 373.904 2229.64 363.664L2313.6 342.672V339.088C2313.6 309.392 2297.22 297.104 2271.11 297.104C2242.95 297.104 2226.56 310.928 2226.05 339.6H2156.42C2161.54 276.624 2209.16 244.88 2273.16 244.88C2343.3 244.88 2382.21 282.768 2382.21 347.28V506H2315.14V464.016C2299.78 494.224 2273.67 511.12 2234.76 511.12ZM2224 432.784C2224 452.24 2238.85 462.48 2260.87 462.48C2293.64 462.48 2313.6 440.464 2313.6 406.16V386.192L2258.31 399.504C2234.76 405.136 2224 416.912 2224 432.784Z" fill="#E0BEFF"/>
</g>
<defs>
<clipPath id="clip0_19_564">
<rect width="2403" height="662" fill="white"/>
</clipPath>
<clipPath id="clip1_19_564">
<rect width="662" height="662" fill="white"/>
</clipPath>
</defs>
</svg>
